<?xml version="1.0" encoding="UTF-8" standalone="no"?>
<svg
   xmlns:dc="http://purl.org/dc/elements/1.1/"
   xmlns:cc="http://creativecommons.org/ns#"
   xmlns:rdf="http://www.w3.org/1999/02/22-rdf-syntax-ns#"
   xmlns:svg="http://www.w3.org/2000/svg"
   xmlns="http://www.w3.org/2000/svg"
   xmlns:sodipodi="http://sodipodi.sourceforge.net/DTD/sodipodi-0.dtd"
   xmlns:inkscape="http://www.inkscape.org/namespaces/inkscape"
   height="32"
   id="Layer_1"
   version="1.1"
   viewBox="0 0 64 32"
   width="64"
   xml:space="preserve"
   inkscape:version="0.91 r13725"
   sodipodi:docname="icon.svg"><metadata
     id="metadata19"><rdf:RDF><cc:Work
         rdf:about=""><dc:format>image/svg+xml</dc:format><dc:type
           rdf:resource="http://purl.org/dc/dcmitype/StillImage" /><dc:title></dc:title></cc:Work></rdf:RDF></metadata><defs
     id="defs17" /><sodipodi:namedview
     pagecolor="#ffffff"
     bordercolor="#666666"
     borderopacity="1"
     objecttolerance="10"
     gridtolerance="10"
     guidetolerance="10"
     inkscape:pageopacity="0"
     inkscape:pageshadow="2"
     inkscape:window-width="1280"
     inkscape:window-height="751"
     id="namedview15"
     showgrid="false"
     borderlayer="true"
     units="mm"
     inkscape:zoom="0.93196807"
     inkscape:cx="126.34035"
     inkscape:cy="219.49252"
     inkscape:window-x="0"
     inkscape:window-y="0"
     inkscape:window-maximized="1"
     inkscape:current-layer="Layer_1" /><g
     id="g3"
     transform="matrix(0.14255952,0,0,0.09497207,-2.6058573,-8.543015)"><g
       id="g5"><path
         d="m 256,111.9 c 0,0 0,0 0,0 l 0,0 z"
         id="path7"
         inkscape:connector-curvature="0" /><path
         d="m 349.2,334.8 c -11.2,-3.9 -29.5,-5.1 -37.5,-8.2 -5.6,-2.2 -14.5,-4.5 -17.3,-8 -2.9,-3.4 -2.9,-28.1 -2.9,-28.1 0,0 7,-6.5 9.9,-13.8 2.9,-7.3 4.8,-27.1 4.8,-27.1 0,0 0.6,0.2 1.5,0.2 2.1,0 5.9,-1.4 7.7,-10.6 2.2,-11.3 6.4,-17.2 5.3,-25.5 -0.8,-5.6 -3.2,-6.5 -4.6,-6.5 -0.7,0 -1.2,0.2 -1.2,0.2 0,0 5.7,-8.4 5.7,-37 0,-29.4 -22.7,-58.4 -64.6,-58.5 -42,0.1 -64.6,29.1 -64.6,58.5 0,28.5 5.7,37 5.7,37 0,0 -0.5,-0.2 -1.2,-0.2 -1.5,0 -3.9,0.9 -4.6,6.5 -1.1,8.3 3,14.3 5.3,25.5 1.8,9.2 5.6,10.6 7.7,10.6 0.9,0 1.5,-0.2 1.5,-0.2 0,0 1.9,19.9 4.8,27.1 2.9,7.3 9.9,13.8 9.9,13.8 0,0 0,24.7 -2.9,28.1 -2.9,3.4 -11.7,5.8 -17.3,8 -8,3.1 -26.3,4.3 -37.5,8.2 C 151.6,338.7 117,355 117,400 l 278,0 c 0,-45 -34.5,-61.3 -45.8,-65.2 z m -202.1,28.8 c 9.2,-9.7 19.6,-13.8 20.8,-14.2 4.4,-1.5 11.6,-2.7 17.9,-3.7 7.5,-1.1 14.5,-2.2 20,-4.3 1,-0.4 2.3,-0.9 3.7,-1.4 7.1,-2.5 15.1,-5.3 20.2,-11.3 3.9,-4.6 5.3,-10.9 6.1,-24.7 0.4,-7 0.2,-13.4 0.2,-13.7 l 0,-6.9 -4.9,-4.7 c -1.1,-1 -4.7,-5 -5.9,-8 -1.2,-3 -2.8,-14.2 -3.5,-20.5 -1.2,-11.5 -6,-5.5 -9.7,-15.2 -2,-5.2 -2.9,-11.4 -4.3,-16.2 -1.4,-4.9 6.4,-9.2 4.6,-15.3 -1.9,-6.1 -5,-13.9 -5,-33.2 0,-20.5 15.3,-42.3 48.6,-42.4 33.3,0 48.6,21.9 48.6,42.4 0,19.3 -3.1,27.1 -5,33.2 -1.9,6.1 6,10.4 4.6,15.3 -1.4,4.9 -2.3,11 -4.3,16.2 -3.8,9.7 -8.5,3.7 -9.7,15.2 -0.7,6.3 -2.3,17.4 -3.5,20.5 -1.2,3 -4.7,7 -5.8,8 l -4.8,4.7 0,6.9 c 0,0.3 -0.2,6.7 0.1,13.7 0.8,13.8 2.1,20.1 6,24.7 5.1,6 13.1,8.8 20.2,11.3 1.4,0.5 2.7,1 3.7,1.4 5.5,2.1 12.6,3.2 20,4.3 6.3,0.9 13.5,2.1 17.9,3.7 1.2,0.4 11.6,4.6 20.8,14.2 5.9,6.2 10,11.4 12.3,20.4 l -242.1,0 c 2.2,-9 6.3,-14.1 12.2,-20.4 z"
         id="path9"
         inkscape:connector-curvature="0" /></g><path
       d="m 144.1,322 c 9,-4.5 17.8,-4.5 24.6,-5.4 0,0 3.8,-6.2 -8.7,-8.4 0,0 -17.1,-4.3 -19.1,-6.7 -2,-2.4 -0.8,-15.7 -0.8,-15.7 0,0 23.9,-0.8 33.4,-9.2 C 158,253.4 166.3,226.3 163.1,201 160,175.8 144.9,160 116,160 c -0.1,0 0,0 -1,0 l 0,0 c -28,0 -42.4,15.8 -45.6,41.1 -3.2,25.3 6,55.4 -9.9,75.7 8.9,7.9 30.9,8.3 33.4,8.3 0.2,0 0.2,0 0.2,0 0,0 0.1,-0.1 0.1,-0.1 0,0 1,14.2 -1,16.6 -2,2.4 -7.9,4.6 -11.9,5.5 -8.8,1.9 -18.1,5 -25.8,7.7 C 46.8,317.4 32,333 32,352 l 80.2,0 c 2.2,-8 17.3,-22.6 31.9,-30 z m -41.3,14 -48.9,0 c 2.4,-4 4.9,-5.8 6.2,-6.5 7.1,-2.5 15.7,-5.1 23.7,-6.8 3.4,-0.7 14.8,-3.7 20.8,-10.9 3,-3.5 6,-9 4.6,-28 L 108.6,269.5 94.3,269 c 0,0 -1.1,0 -1.1,0 l -0.6,0 c -3.7,0 -7.4,-0.4 -10.7,-0.9 4.2,-13.6 3.8,-28.2 3.3,-41.5 -0.3,-8.5 -0.5,-16.9 0.4,-24 2.3,-18.2 11.1,-27.6 29.3,-27.6 l 0.2,0 0.5,0 c 20,0 29.4,9.2 31.8,27.7 0.9,7.1 0.8,14.9 0.6,23 -0.3,13.4 -0.6,28.1 4.1,42.7 -0.4,0.1 -0.7,0.2 -1.1,0.3 -6,1.1 -11.2,1.3 -11.2,1.3 l -14.1,0.5 -1.3,14 c -1.6,17.5 1.2,23.5 4.4,27.3 0.1,0.1 0.1,0.1 0.2,0.2 -5.7,3.6 -11.3,8.4 -16.3,13 -4.1,3.5 -7.3,7 -9.9,11 z"
       id="path11"
       inkscape:connector-curvature="0" /><path
       d="m 399.8,352 80.2,0 c 0,-19 -14.8,-34.6 -22.5,-37.3 -7.7,-2.7 -17.1,-5.8 -25.8,-7.7 -4.1,-0.9 -9.9,-3.1 -11.9,-5.5 -2,-2.4 -1,-16.6 -1,-16.6 0,0 0.1,0.1 0.1,0.1 0,0 0.1,0 0.2,0 2.5,0 24.6,-0.3 33.5,-8.3 -15.9,-20.3 -6.8,-50.4 -10,-75.7 C 439.4,175.8 425,160 397,160 l 0,0 c -1,0 -1,0 -1,0 -28.9,0 -44.1,15.8 -47.2,41.1 -3.2,25.3 5.1,52.4 -10.4,75.6 9.5,8.4 33.4,9.2 33.4,9.2 0,0 1.2,13.3 -0.8,15.7 -2,2.4 -19.1,6.7 -19.1,6.7 -12.5,2.2 -8.7,8.4 -8.7,8.4 6.8,0.9 15.7,0.9 24.6,5.4 14.7,7.3 29.8,21.9 32,29.9 z m -0.4,-27.1 c -5,-4.6 -10.6,-9.4 -16.3,-13 0.1,-0.1 0.1,-0.1 0.2,-0.2 3.2,-3.9 6,-9.9 4.4,-27.3 l -1.3,-14 -14.1,-0.5 c 0,0 -5.2,-0.2 -11.2,-1.3 -0.4,-0.1 -0.8,-0.2 -1.1,-0.3 4.7,-14.5 4.4,-29.3 4.1,-42.7 -0.2,-8.1 -0.3,-15.9 0.6,-23 2.3,-18.5 11.8,-27.7 31.8,-27.7 l 0.5,0 0.2,0 c 18.2,0 26.9,9.4 29.3,27.6 0.9,7.1 0.6,15.5 0.4,24 -0.4,13.3 -0.9,27.9 3.3,41.5 -3.3,0.5 -7,0.9 -10.7,0.9 l -0.6,0 c 0,0 -1.1,0 -1.1,0 l -14.4,0.4 -0.6,14.3 c -1.4,19.1 1.7,24.5 4.6,28 6,7.2 17.5,10.2 20.8,10.9 7.9,1.7 16.6,4.3 23.7,6.8 1.3,0.7 3.8,2.5 6.2,6.5 l -48.9,0 c -2.6,-3.8 -5.8,-7.3 -9.8,-10.9 z"
       id="path13"
       inkscape:connector-curvature="0" /></g></svg>